<?xml version="1.0" encoding="utf-8"?>
<!-- Generator: Adobe Illustrator 15.1.0, SVG Export Plug-In . SVG Version: 6.00 Build 0)  -->
<!DOCTYPE svg PUBLIC "-//W3C//DTD SVG 1.1//EN" "http://www.w3.org/Graphics/SVG/1.1/DTD/svg11.dtd">
<svg version="1.1" id="Layer_1" xmlns="http://www.w3.org/2000/svg" xmlns:xlink="http://www.w3.org/1999/xlink" x="0px" y="0px"
	 width="515.91px" height="515.91px" viewBox="0 0 515.91 515.91" enable-background="new 0 0 515.91 515.91" xml:space="preserve">
<circle fill="#00ACD4" cx="257.968" cy="257.238" r="244.948"/>
<path id="shopping-cart-8-icon" fill="#FFFFFF" d="M239.495,365.12c0,10.731-8.697,19.43-19.429,19.43
	c-10.73,0-19.429-8.698-19.429-19.43c0-10.729,8.698-19.427,19.429-19.427C230.798,345.692,239.495,354.39,239.495,365.12z
	 M356.488,166.511l-42.758,135.95H190.116L143.21,194.328h-31.789l59.906,137.034h0.198h163.336l42.756-135.95h21.66l9.209-28.9
	H356.488z M284.285,345.692c-10.729,0-19.427,8.697-19.427,19.428s8.697,19.43,19.427,19.43c10.731,0,19.43-8.699,19.43-19.43
	C303.715,354.39,295.015,345.692,284.285,345.692z M225.167,229.352h-25.38l51.093,51.18l51.092-51.18h-25.38
	c0,0-6.843-69.973-89.93-89.991C235.43,171.301,225.167,229.352,225.167,229.352z"/>
</svg>
